<svg width="122" height="127" viewBox="0 0 122 127" fill="none" xmlns="http://www.w3.org/2000/svg">
<path d="M0 102.079V0H21.8556V99.0601V126.477L0 102.079Z" fill="#EFC33B"/>
<path d="M0 102.079V0H21.8556V99.0601V126.477L0 102.079Z" fill="url(#paint0_linear)"/>
<path d="M99.2473 126.477V99.0601V0H122V102.079L99.2473 126.477Z" fill="#EFC33B"/>
<path d="M99.2473 126.477V99.0601V0H122V102.079L99.2473 126.477Z" fill="url(#paint1_linear)"/>
<path d="M21.8556 0H25.7701L60.6158 46.9781L95.5775 0H99.2473H122L74.0458 65.084L99.2473 99.0601H72.7433L60.8976 82.9289L49.012 99.0601H21.8556L47.4695 64.6428L0 0H21.8556Z" fill="#EFC33B"/>
<defs>
<linearGradient id="paint0_linear" x1="61" y1="0" x2="61" y2="126.477" gradientUnits="userSpaceOnUse">
<stop stop-color="#DF9C38"/>
<stop offset="1" stop-color="#EFC33B" stop-opacity="0"/>
</linearGradient>
<linearGradient id="paint1_linear" x1="61" y1="0" x2="61" y2="126.477" gradientUnits="userSpaceOnUse">
<stop stop-color="#DF9C38"/>
<stop offset="1" stop-color="#EFC33B" stop-opacity="0"/>
</linearGradient>
</defs>
</svg>
